<?xml version="1.0" encoding="utf-8"?>
<!-- Generator: Adobe Illustrator 20.1.0, SVG Export Plug-In . SVG Version: 6.00 Build 0)  -->
<svg version="1.1" id="Layer_1" xmlns="http://www.w3.org/2000/svg" xmlns:xlink="http://www.w3.org/1999/xlink" x="0px" y="0px"
	 width="374px" height="245px" viewBox="0 0 374 245" style="enable-background:new 0 0 374 245;" xml:space="preserve">
<style type="text/css">
	.st0{fill:#F5F5F5;}
	.st1{fill:#FCB832;}
	.st2{fill:#80E7D9;}
	.st3{enable-background:new    ;}
	.st4{fill:#474747;}
</style>
<title>Map</title>
<desc>Created with Sketch.</desc>
<g id="Contact" transform="translate(-122.000000, -924.000000)">
	<g id="Map" transform="translate(122.000000, 924.000000)">
		<g id="Pin" transform="translate(195.000000, 104.000000)">
			<rect id="Rectangle-4" class="st0" width="39" height="64"/>
			<path id="Page-1" class="st1" d="M17.6,38.7c-2.3,0-4.1-1.9-4.1-4.1c0-2.3,1.9-4.1,4.1-4.1c2.3,0,4.1,1.9,4.1,4.1
				C21.7,36.9,19.9,38.7,17.6,38.7 M18,23c-6.6,0-12,5.4-12,12.1c0,5.1,3.2,9.5,7.7,11.3l4.4,5.6l4.5-5.7c4.4-1.8,7.5-6.1,7.5-11.2
				C30,28.4,24.7,23,18,23"/>
		</g>
		<rect id="Rectangle-3" x="255" class="st2" width="29" height="245"/>
		<rect id="Rectangle-3-Copy-3" class="st2" width="29" height="245"/>
		<rect id="Rectangle-3-Copy-4" x="148" y="40" class="st2" width="10" height="165"/>
		<rect id="Rectangle-3-Copy-5" x="10" y="119" class="st2" width="148" height="10"/>
		<polygon id="Rectangle-3-Copy" class="st2" points="374,35 374,64 29,64 29,35 		"/>
		<polygon id="Rectangle-3-Copy-2" class="st2" points="374,177 374,206 29,206 29,177 		"/>
		<g class="st3">
			<path class="st4" d="M272.8,149.3c0.4-0.3,0.7-0.6,0.9-1c0.2-0.4,0.3-0.8,0.3-1.3c0-0.2,0-0.5-0.1-0.7s-0.2-0.5-0.3-0.7
				c-0.1-0.2-0.3-0.4-0.6-0.5c-0.2-0.1-0.5-0.2-0.8-0.2c-0.4,0-0.7,0.1-0.9,0.4c-0.2,0.3-0.4,0.6-0.5,1c-0.1,0.4-0.3,0.8-0.4,1.3
				c-0.1,0.5-0.3,0.9-0.6,1.3c-0.2,0.4-0.6,0.7-1,1c-0.4,0.3-1,0.4-1.6,0.4c-0.3,0-0.6-0.1-1-0.2c-0.3-0.1-0.7-0.3-1-0.6
				c-0.3-0.3-0.5-0.7-0.7-1.1s-0.3-1-0.3-1.6c0-0.6,0.1-1.1,0.2-1.7c0.2-0.5,0.5-1,1-1.4l1.1,1.2c-0.3,0.2-0.5,0.4-0.7,0.8
				s-0.3,0.7-0.3,1.1c0,0.4,0.1,0.7,0.2,1c0.1,0.3,0.2,0.5,0.4,0.6s0.3,0.3,0.5,0.3c0.2,0.1,0.4,0.1,0.5,0.1c0.5,0,0.8-0.1,1-0.4
				c0.2-0.3,0.4-0.6,0.6-1c0.1-0.4,0.3-0.8,0.4-1.3c0.1-0.5,0.3-0.9,0.5-1.3c0.2-0.4,0.5-0.7,0.9-1c0.4-0.3,0.9-0.4,1.5-0.4
				c0.5,0,1,0.1,1.4,0.3c0.4,0.2,0.8,0.5,1,0.8c0.3,0.3,0.5,0.7,0.6,1.2s0.2,0.9,0.2,1.4c0,0.7-0.1,1.3-0.4,1.9s-0.6,1.1-1.1,1.5
				L272.8,149.3z"/>
			<path class="st4" d="M275.1,139.7c0,0.3-0.1,0.5-0.3,0.7c-0.2,0.2-0.4,0.3-0.7,0.3c-0.3,0-0.5-0.1-0.7-0.3
				c-0.2-0.2-0.3-0.4-0.3-0.7s0.1-0.5,0.3-0.7c0.2-0.2,0.4-0.3,0.7-0.3c0.3,0,0.5,0.1,0.7,0.3C275,139.2,275.1,139.4,275.1,139.7z"
				/>
			<path class="st4" d="M264.4,130.3v-3.7c0-0.5,0.1-0.9,0.2-1.3c0.1-0.4,0.3-0.7,0.5-1c0.2-0.3,0.5-0.5,0.8-0.7
				c0.3-0.2,0.7-0.2,1.2-0.2c0.6,0,1.1,0.2,1.5,0.5c0.4,0.3,0.7,0.8,0.8,1.3h0c0-0.3,0.1-0.6,0.2-0.9c0.1-0.3,0.3-0.5,0.6-0.7
				s0.5-0.4,0.8-0.5c0.3-0.1,0.6-0.2,1-0.2c0.5,0,0.9,0.1,1.3,0.3s0.7,0.5,0.9,0.8s0.4,0.7,0.6,1.2c0.1,0.5,0.2,0.9,0.2,1.5v3.6
				H264.4z M268.8,128.8v-2c0-0.3,0-0.5-0.1-0.8c-0.1-0.2-0.1-0.5-0.3-0.6c-0.1-0.2-0.3-0.3-0.5-0.4c-0.2-0.1-0.4-0.2-0.7-0.2
				c-0.4,0-0.8,0.1-1.1,0.4c-0.3,0.3-0.5,0.7-0.5,1.3v2.3H268.8z M273.7,128.8v-2.1c0-0.2,0-0.5-0.1-0.7c0-0.3-0.1-0.5-0.3-0.7
				s-0.3-0.4-0.5-0.6c-0.2-0.2-0.5-0.2-0.9-0.2c-0.6,0-1.1,0.2-1.4,0.6c-0.3,0.4-0.5,1-0.5,1.7v2.1H273.7z"/>
			<path class="st4" d="M267.9,120.2v-1.4h1.1v0c-0.2-0.1-0.4-0.2-0.5-0.4c-0.2-0.2-0.3-0.3-0.4-0.5c-0.1-0.2-0.2-0.4-0.3-0.6
				c-0.1-0.2-0.1-0.4-0.1-0.7c0-0.2,0-0.4,0.1-0.6l1.5,0.1c0,0.1-0.1,0.2-0.1,0.3c0,0.1,0,0.2,0,0.3c0,0.7,0.2,1.2,0.6,1.5
				s0.9,0.5,1.7,0.5h3.6v1.4H267.9z"/>
			<path class="st4" d="M271.4,114.4c-0.5,0-1-0.1-1.5-0.3c-0.5-0.2-0.8-0.5-1.2-0.8c-0.3-0.3-0.6-0.7-0.8-1.2
				c-0.2-0.5-0.3-1-0.3-1.5c0-0.5,0.1-1,0.3-1.5c0.2-0.5,0.5-0.9,0.8-1.2c0.3-0.3,0.7-0.6,1.2-0.8c0.5-0.2,0.9-0.3,1.5-0.3
				c0.5,0,1,0.1,1.5,0.3c0.5,0.2,0.9,0.5,1.2,0.8c0.3,0.3,0.6,0.7,0.8,1.2c0.2,0.5,0.3,1,0.3,1.5c0,0.5-0.1,1-0.3,1.5
				c-0.2,0.5-0.5,0.9-0.8,1.2c-0.3,0.3-0.7,0.6-1.2,0.8C272.5,114.3,272,114.4,271.4,114.4z M271.4,113c0.4,0,0.7-0.1,1-0.2
				c0.3-0.1,0.6-0.3,0.8-0.5c0.2-0.2,0.4-0.4,0.5-0.7s0.2-0.6,0.2-1s-0.1-0.7-0.2-1c-0.1-0.3-0.3-0.5-0.5-0.7
				c-0.2-0.2-0.5-0.4-0.8-0.5c-0.3-0.1-0.6-0.2-1-0.2c-0.4,0-0.7,0.1-1,0.2c-0.3,0.1-0.6,0.3-0.8,0.5c-0.2,0.2-0.4,0.4-0.5,0.7
				c-0.1,0.3-0.2,0.6-0.2,1s0.1,0.7,0.2,1s0.3,0.5,0.5,0.7c0.2,0.2,0.5,0.4,0.8,0.5C270.8,112.9,271.1,113,271.4,113z"/>
			<path class="st4" d="M268.8,104.2c-0.3-0.4-0.6-0.8-0.8-1.3c-0.2-0.5-0.3-1-0.3-1.5c0-0.5,0.1-1,0.2-1.3s0.3-0.7,0.5-0.9
				c0.2-0.2,0.5-0.4,0.8-0.5c0.3-0.1,0.6-0.2,0.9-0.2h3.6c0.2,0,0.5,0,0.7,0c0.2,0,0.4,0,0.6,0v1.2c-0.4,0-0.7,0-1.1,0v0
				c0.5,0.3,0.8,0.7,1,1.1c0.2,0.4,0.3,0.9,0.3,1.4c0,0.3,0,0.6-0.1,0.9c-0.1,0.3-0.2,0.6-0.4,0.8c-0.2,0.2-0.4,0.4-0.7,0.5
				c-0.3,0.1-0.6,0.2-0.9,0.2c-0.5,0-0.8-0.1-1.2-0.3c-0.3-0.2-0.6-0.5-0.8-0.8c-0.2-0.4-0.3-0.8-0.4-1.2s-0.1-1-0.1-1.5v-1h-0.3
				c-0.2,0-0.4,0-0.5,0.1c-0.2,0.1-0.3,0.2-0.5,0.3c-0.1,0.1-0.3,0.3-0.3,0.5c-0.1,0.2-0.1,0.5-0.1,0.8c0,0.3,0,0.5,0.1,0.7
				c0,0.2,0.1,0.4,0.2,0.5s0.2,0.3,0.3,0.4c0.1,0.1,0.2,0.3,0.3,0.4L268.8,104.2z M271.6,100.4c0,0.3,0,0.6,0.1,1s0.1,0.6,0.2,0.9
				c0.1,0.3,0.2,0.5,0.4,0.7c0.2,0.2,0.4,0.3,0.7,0.3c0.4,0,0.7-0.1,0.9-0.4c0.2-0.3,0.3-0.6,0.3-1.1c0-0.4-0.1-0.7-0.2-0.9
				c-0.1-0.3-0.3-0.5-0.5-0.6s-0.4-0.3-0.7-0.3c-0.2-0.1-0.5-0.1-0.7-0.1h-0.5V100.4z"/>
			<path class="st4" d="M275,88.5v1.4h-1v0c0.4,0.3,0.7,0.6,0.9,1.1s0.3,0.9,0.3,1.4c0,0.6-0.1,1-0.3,1.5c-0.2,0.4-0.5,0.8-0.8,1.1
				c-0.3,0.3-0.7,0.6-1.2,0.7c-0.5,0.2-0.9,0.3-1.5,0.3s-1-0.1-1.5-0.3c-0.5-0.2-0.9-0.4-1.2-0.7c-0.3-0.3-0.6-0.7-0.8-1.1
				s-0.3-0.9-0.3-1.5c0-0.5,0.1-1,0.3-1.4c0.2-0.5,0.5-0.8,0.9-1v0h-5.2v-1.4H275z M273.9,92.1c0-0.4-0.1-0.7-0.2-1
				c-0.1-0.3-0.3-0.5-0.5-0.7c-0.2-0.2-0.5-0.4-0.8-0.5c-0.3-0.1-0.6-0.2-1-0.2c-0.4,0-0.7,0.1-1,0.2c-0.3,0.1-0.6,0.3-0.8,0.5
				c-0.2,0.2-0.4,0.4-0.5,0.7c-0.1,0.3-0.2,0.6-0.2,1s0.1,0.7,0.2,1s0.3,0.5,0.5,0.7c0.2,0.2,0.5,0.4,0.8,0.5c0.3,0.1,0.6,0.2,1,0.2
				c0.4,0,0.7-0.1,1-0.2c0.3-0.1,0.6-0.3,0.8-0.5c0.2-0.2,0.4-0.4,0.5-0.7S273.9,92.5,273.9,92.1z"/>
		</g>
		<g class="st3">
			<path class="st4" d="M9.5,142.5l1.8,2l-1,0.8l-2.4-3V141h10.6v1.4H9.5z"/>
			<path class="st4" d="M9.2,130.2v4.3l2.7,0c0-0.1-0.1-0.2-0.1-0.3c0-0.1-0.1-0.3-0.1-0.4c0-0.1,0-0.3,0-0.4c0-0.1,0-0.2,0-0.3
				c0-0.5,0.1-1,0.3-1.4c0.2-0.4,0.4-0.8,0.7-1c0.3-0.3,0.7-0.5,1.1-0.7c0.4-0.2,0.9-0.2,1.4-0.2c0.5,0,1,0.1,1.4,0.3
				c0.4,0.2,0.8,0.5,1.1,0.8c0.3,0.3,0.5,0.7,0.7,1.2c0.2,0.5,0.2,0.9,0.2,1.5c0,0.7-0.2,1.4-0.6,2s-0.9,1-1.6,1.2l-0.5-1.4
				c0.5-0.2,0.8-0.4,1.1-0.8s0.3-0.7,0.3-1.2c0-0.3,0-0.5-0.2-0.8c-0.1-0.3-0.2-0.5-0.4-0.7c-0.2-0.2-0.4-0.3-0.7-0.4
				c-0.3-0.1-0.6-0.2-0.9-0.2c-0.8,0-1.4,0.2-1.7,0.7c-0.4,0.5-0.6,1.1-0.6,1.9c0,0.3,0,0.6,0.1,1c0.1,0.4,0.2,0.8,0.4,1.2l-5.6-0.1
				v-5.7H9.2z"/>
			<path class="st4" d="M12.6,123.2v1.9h3.2c0.2,0,0.4,0,0.6,0c0.2,0,0.4,0,0.5-0.1c0.2-0.1,0.3-0.2,0.4-0.3
				c0.1-0.1,0.1-0.3,0.1-0.6c0-0.2,0-0.3,0-0.5c0-0.2-0.1-0.3-0.2-0.5h1.2c0.1,0.2,0.2,0.4,0.2,0.6c0,0.3,0.1,0.5,0.1,0.6
				c0,0.5-0.1,0.9-0.2,1.2c-0.1,0.3-0.3,0.5-0.6,0.6c-0.2,0.1-0.5,0.2-0.8,0.2c-0.3,0-0.6,0-0.9,0h-3.7v1.6h-1.2v-1.6h-2v-1.3h2
				v-1.9H12.6z"/>
			<path class="st4" d="M7.2,120.6v-1.4h5.3v0c-0.4-0.2-0.7-0.5-0.9-0.9c-0.2-0.4-0.4-0.9-0.4-1.5c0-0.3,0.1-0.7,0.2-1
				c0.1-0.3,0.3-0.6,0.5-0.8c0.2-0.2,0.5-0.4,0.8-0.6c0.3-0.1,0.8-0.2,1.2-0.2h4.6v1.3h-4.2c-0.3,0-0.6,0-0.8,0.1
				c-0.2,0.1-0.4,0.2-0.6,0.4c-0.1,0.1-0.2,0.3-0.3,0.5c-0.1,0.2-0.1,0.4-0.1,0.6c0,0.3,0,0.5,0.1,0.8c0.1,0.2,0.2,0.4,0.4,0.6
				c0.2,0.2,0.4,0.3,0.7,0.4c0.3,0.1,0.7,0.1,1.1,0.1h3.7v1.4H7.2z"/>
			<path class="st4" d="M16.3,105.6c0.4-0.3,0.7-0.6,0.9-1c0.2-0.4,0.3-0.8,0.3-1.3c0-0.2,0-0.5-0.1-0.7s-0.2-0.5-0.3-0.7
				c-0.1-0.2-0.3-0.4-0.6-0.5c-0.2-0.1-0.5-0.2-0.8-0.2c-0.4,0-0.7,0.1-0.9,0.4c-0.2,0.3-0.4,0.6-0.5,1c-0.1,0.4-0.3,0.8-0.4,1.3
				c-0.1,0.5-0.3,0.9-0.6,1.3c-0.2,0.4-0.6,0.7-1,1c-0.4,0.3-1,0.4-1.6,0.4c-0.3,0-0.6-0.1-1-0.2c-0.3-0.1-0.7-0.3-1-0.6
				s-0.5-0.7-0.7-1.1s-0.3-1-0.3-1.6c0-0.6,0.1-1.1,0.2-1.7c0.2-0.5,0.5-1,1-1.4l1.1,1.2c-0.3,0.2-0.5,0.4-0.7,0.8S9,102.4,9,102.9
				c0,0.4,0.1,0.7,0.2,1c0.1,0.3,0.2,0.5,0.4,0.6s0.3,0.3,0.5,0.3c0.2,0.1,0.4,0.1,0.5,0.1c0.5,0,0.8-0.1,1-0.4
				c0.2-0.3,0.4-0.6,0.6-1c0.1-0.4,0.3-0.8,0.4-1.3c0.1-0.5,0.3-0.9,0.5-1.3c0.2-0.4,0.5-0.7,0.9-1c0.4-0.3,0.9-0.4,1.5-0.4
				c0.5,0,1,0.1,1.4,0.3c0.4,0.2,0.8,0.5,1,0.8c0.3,0.3,0.5,0.7,0.6,1.2c0.2,0.5,0.2,0.9,0.2,1.4c0,0.7-0.1,1.3-0.4,1.9
				c-0.2,0.6-0.6,1.1-1.1,1.5L16.3,105.6z"/>
			<path class="st4" d="M12.6,93.2v1.9h3.2c0.2,0,0.4,0,0.6,0c0.2,0,0.4,0,0.5-0.1c0.2-0.1,0.3-0.2,0.4-0.3c0.1-0.1,0.1-0.3,0.1-0.6
				c0-0.2,0-0.3,0-0.5c0-0.2-0.1-0.3-0.2-0.5h1.2c0.1,0.2,0.2,0.4,0.2,0.6c0,0.3,0.1,0.5,0.1,0.6c0,0.5-0.1,0.9-0.2,1.2
				c-0.1,0.3-0.3,0.5-0.6,0.6c-0.2,0.1-0.5,0.2-0.8,0.2c-0.3,0-0.6,0-0.9,0h-3.7V98h-1.2v-1.6h-2v-1.4h2v-1.9H12.6z"/>
		</g>
		<g class="st3">
			<path class="st4" d="M91.4,186.4h1.4v9.3h4.9v1.3h-6.3V186.4z"/>
			<path class="st4" d="M99.4,193.4c0-0.5,0.1-1,0.3-1.5c0.2-0.5,0.5-0.8,0.8-1.2c0.3-0.3,0.7-0.6,1.2-0.8c0.5-0.2,1-0.3,1.5-0.3
				c0.5,0,1,0.1,1.5,0.3c0.5,0.2,0.9,0.5,1.2,0.8c0.3,0.3,0.6,0.7,0.8,1.2c0.2,0.5,0.3,0.9,0.3,1.5c0,0.5-0.1,1-0.3,1.5
				c-0.2,0.5-0.5,0.9-0.8,1.2c-0.3,0.3-0.7,0.6-1.2,0.8c-0.5,0.2-1,0.3-1.5,0.3c-0.5,0-1-0.1-1.5-0.3c-0.5-0.2-0.9-0.5-1.2-0.8
				c-0.3-0.3-0.6-0.7-0.8-1.2C99.5,194.5,99.4,194,99.4,193.4z M100.8,193.4c0,0.4,0.1,0.7,0.2,1c0.1,0.3,0.3,0.6,0.5,0.8
				c0.2,0.2,0.4,0.4,0.7,0.5s0.6,0.2,1,0.2s0.7-0.1,1-0.2c0.3-0.1,0.5-0.3,0.7-0.5c0.2-0.2,0.4-0.5,0.5-0.8c0.1-0.3,0.2-0.6,0.2-1
				c0-0.4-0.1-0.7-0.2-1c-0.1-0.3-0.3-0.6-0.5-0.8c-0.2-0.2-0.4-0.4-0.7-0.5c-0.3-0.1-0.6-0.2-1-0.2s-0.7,0.1-1,0.2
				s-0.5,0.3-0.7,0.5c-0.2,0.2-0.4,0.5-0.5,0.8C100.9,192.8,100.8,193.1,100.8,193.4z"/>
			<path class="st4" d="M109.5,189.9h1.3v1.1h0c0-0.1,0.1-0.2,0.2-0.4s0.3-0.3,0.5-0.4s0.4-0.2,0.7-0.3s0.6-0.1,0.9-0.1
				c0.5,0,1,0.1,1.3,0.3c0.4,0.2,0.7,0.5,0.9,1c0.2-0.4,0.6-0.8,1-1s0.8-0.3,1.3-0.3c0.5,0,1,0.1,1.4,0.3c0.3,0.2,0.6,0.4,0.8,0.7
				s0.3,0.6,0.4,1s0.1,0.8,0.1,1.2v4.1h-1.3v-4c0-0.3,0-0.5-0.1-0.8s-0.1-0.5-0.2-0.7c-0.1-0.2-0.3-0.3-0.5-0.5s-0.5-0.2-0.8-0.2
				c-0.6,0-1.1,0.2-1.4,0.6c-0.3,0.4-0.4,0.9-0.4,1.5v3.9h-1.4v-3.7c0-0.3,0-0.7-0.1-0.9c0-0.3-0.1-0.5-0.2-0.7
				c-0.1-0.2-0.3-0.4-0.5-0.5s-0.5-0.2-0.8-0.2c-0.2,0-0.5,0-0.7,0.1c-0.2,0.1-0.4,0.2-0.6,0.4c-0.2,0.2-0.3,0.4-0.4,0.7
				c-0.1,0.3-0.1,0.6-0.1,1v3.7h-1.4V189.9z"/>
			<path class="st4" d="M123.2,185.7h1.4v5.2h0c0.2-0.4,0.6-0.7,1-0.9c0.4-0.2,0.9-0.3,1.4-0.3c0.5,0,1,0.1,1.5,0.3
				c0.4,0.2,0.8,0.5,1.1,0.8s0.6,0.7,0.7,1.2s0.3,0.9,0.3,1.5s-0.1,1-0.3,1.5s-0.4,0.8-0.7,1.2c-0.3,0.3-0.7,0.6-1.1,0.8
				c-0.4,0.2-0.9,0.3-1.5,0.3c-0.5,0-0.9-0.1-1.4-0.3c-0.5-0.2-0.8-0.5-1.1-0.9h0v1h-1.4V185.7z M126.9,195.9c0.4,0,0.7-0.1,1-0.2
				s0.5-0.3,0.7-0.5s0.4-0.5,0.5-0.8c0.1-0.3,0.2-0.6,0.2-1c0-0.4-0.1-0.7-0.2-1c-0.1-0.3-0.3-0.6-0.5-0.8c-0.2-0.2-0.4-0.4-0.7-0.5
				s-0.6-0.2-1-0.2s-0.7,0.1-1,0.2s-0.5,0.3-0.7,0.5c-0.2,0.2-0.4,0.5-0.5,0.8c-0.1,0.3-0.2,0.6-0.2,1c0,0.4,0.1,0.7,0.2,1
				c0.1,0.3,0.3,0.6,0.5,0.8c0.2,0.2,0.4,0.4,0.7,0.5S126.5,195.9,126.9,195.9z"/>
			<path class="st4" d="M133.3,190.8c0.4-0.3,0.8-0.6,1.3-0.8c0.5-0.2,1-0.3,1.5-0.3c0.5,0,1,0.1,1.3,0.2s0.7,0.3,0.9,0.5
				c0.2,0.2,0.4,0.5,0.5,0.8c0.1,0.3,0.2,0.6,0.2,0.9v3.6c0,0.2,0,0.5,0,0.7c0,0.2,0,0.4,0,0.6h-1.2c0-0.4,0-0.7,0-1.1h0
				c-0.3,0.5-0.7,0.8-1.1,1c-0.4,0.2-0.9,0.3-1.4,0.3c-0.3,0-0.6,0-0.9-0.1c-0.3-0.1-0.6-0.2-0.8-0.4c-0.2-0.2-0.4-0.4-0.5-0.7
				c-0.1-0.3-0.2-0.6-0.2-0.9c0-0.5,0.1-0.8,0.3-1.2c0.2-0.3,0.5-0.6,0.8-0.8c0.4-0.2,0.8-0.3,1.2-0.4s1-0.1,1.5-0.1h1v-0.3
				c0-0.2,0-0.4-0.1-0.5c-0.1-0.2-0.2-0.3-0.3-0.5c-0.1-0.1-0.3-0.3-0.5-0.3c-0.2-0.1-0.5-0.1-0.8-0.1c-0.3,0-0.5,0-0.7,0.1
				c-0.2,0-0.4,0.1-0.5,0.2s-0.3,0.2-0.4,0.3c-0.1,0.1-0.3,0.2-0.4,0.3L133.3,190.8z M137.1,193.6c-0.3,0-0.6,0-1,0.1
				s-0.6,0.1-0.9,0.2c-0.3,0.1-0.5,0.2-0.7,0.4c-0.2,0.2-0.3,0.4-0.3,0.7c0,0.4,0.1,0.7,0.4,0.9c0.3,0.2,0.6,0.3,1.1,0.3
				c0.4,0,0.7-0.1,0.9-0.2c0.3-0.1,0.5-0.3,0.6-0.5s0.3-0.4,0.3-0.7c0.1-0.2,0.1-0.5,0.1-0.7v-0.5H137.1z"/>
			<path class="st4" d="M141.9,189.9h1.4v1.1h0c0.1-0.2,0.2-0.4,0.4-0.5c0.2-0.2,0.3-0.3,0.5-0.4c0.2-0.1,0.4-0.2,0.6-0.3
				c0.2-0.1,0.4-0.1,0.7-0.1c0.2,0,0.4,0,0.6,0.1l-0.1,1.5c-0.1,0-0.2-0.1-0.3-0.1c-0.1,0-0.2,0-0.3,0c-0.7,0-1.2,0.2-1.5,0.6
				s-0.5,0.9-0.5,1.7v3.6h-1.4V189.9z"/>
			<path class="st4" d="M155.2,197h-1.4v-1h0c-0.3,0.4-0.6,0.7-1.1,0.9s-0.9,0.3-1.4,0.3c-0.6,0-1-0.1-1.5-0.3
				c-0.4-0.2-0.8-0.5-1.1-0.8c-0.3-0.3-0.6-0.7-0.7-1.2c-0.2-0.5-0.3-0.9-0.3-1.5s0.1-1,0.3-1.5c0.2-0.5,0.4-0.9,0.7-1.2
				c0.3-0.3,0.7-0.6,1.1-0.8s0.9-0.3,1.5-0.3c0.5,0,1,0.1,1.4,0.3c0.5,0.2,0.8,0.5,1,0.9h0v-5.2h1.4V197z M151.6,195.9
				c0.4,0,0.7-0.1,1-0.2c0.3-0.1,0.5-0.3,0.7-0.5c0.2-0.2,0.4-0.5,0.5-0.8c0.1-0.3,0.2-0.6,0.2-1c0-0.4-0.1-0.7-0.2-1
				c-0.1-0.3-0.3-0.6-0.5-0.8c-0.2-0.2-0.4-0.4-0.7-0.5c-0.3-0.1-0.6-0.2-1-0.2s-0.7,0.1-1,0.2s-0.5,0.3-0.7,0.5
				c-0.2,0.2-0.4,0.5-0.5,0.8c-0.1,0.3-0.2,0.6-0.2,1c0,0.4,0.1,0.7,0.2,1c0.1,0.3,0.3,0.6,0.5,0.8c0.2,0.2,0.4,0.4,0.7,0.5
				S151.2,195.9,151.6,195.9z"/>
			<path class="st4" d="M163.9,194.8c0.3,0.4,0.6,0.7,1,0.9c0.4,0.2,0.8,0.3,1.3,0.3c0.2,0,0.5,0,0.7-0.1s0.5-0.2,0.7-0.3
				c0.2-0.1,0.4-0.3,0.5-0.6c0.1-0.2,0.2-0.5,0.2-0.8c0-0.4-0.1-0.7-0.4-0.9c-0.3-0.2-0.6-0.4-1-0.5c-0.4-0.1-0.8-0.3-1.3-0.4
				c-0.5-0.1-0.9-0.3-1.3-0.6c-0.4-0.2-0.7-0.6-1-1c-0.3-0.4-0.4-1-0.4-1.6c0-0.3,0.1-0.6,0.2-1c0.1-0.3,0.3-0.7,0.6-1
				s0.7-0.5,1.1-0.7s1-0.3,1.6-0.3c0.6,0,1.1,0.1,1.7,0.2c0.5,0.2,1,0.5,1.4,1l-1.2,1.1c-0.2-0.3-0.4-0.5-0.8-0.7s-0.7-0.3-1.1-0.3
				c-0.4,0-0.7,0.1-1,0.2c-0.3,0.1-0.5,0.2-0.6,0.4s-0.3,0.3-0.3,0.5c-0.1,0.2-0.1,0.4-0.1,0.5c0,0.5,0.1,0.8,0.4,1
				c0.3,0.2,0.6,0.4,1,0.6c0.4,0.1,0.8,0.3,1.3,0.4c0.5,0.1,0.9,0.3,1.3,0.5c0.4,0.2,0.7,0.5,1,0.9c0.3,0.4,0.4,0.9,0.4,1.5
				c0,0.5-0.1,1-0.3,1.4c-0.2,0.4-0.5,0.8-0.8,1c-0.3,0.3-0.7,0.5-1.2,0.6c-0.5,0.2-0.9,0.2-1.4,0.2c-0.7,0-1.3-0.1-1.9-0.4
				c-0.6-0.2-1.1-0.6-1.5-1.1L163.9,194.8z"/>
			<path class="st4" d="M176.3,191.1h-1.9v3.2c0,0.2,0,0.4,0,0.6c0,0.2,0,0.4,0.1,0.5c0.1,0.2,0.2,0.3,0.3,0.4
				c0.1,0.1,0.3,0.1,0.6,0.1c0.2,0,0.3,0,0.5,0c0.2,0,0.3-0.1,0.5-0.2v1.2c-0.2,0.1-0.4,0.2-0.6,0.2c-0.3,0-0.5,0.1-0.6,0.1
				c-0.5,0-0.9-0.1-1.2-0.2c-0.3-0.1-0.5-0.3-0.6-0.6c-0.1-0.2-0.2-0.5-0.2-0.8c0-0.3,0-0.6,0-0.9v-3.7h-1.6v-1.2h1.6v-2h1.4v2h1.9
				V191.1z"/>
		</g>
		<g class="st3">
			<path class="st4" d="M109.4,44.4h3.7c0.7,0,1.2,0.1,1.7,0.3c0.4,0.2,0.8,0.4,1,0.7c0.3,0.3,0.4,0.6,0.5,1c0.1,0.4,0.1,0.7,0.1,1
				s0,0.7-0.1,1c-0.1,0.4-0.3,0.7-0.5,1c-0.3,0.3-0.6,0.5-1,0.7c-0.4,0.2-1,0.3-1.7,0.3h-2.3V55h-1.4V44.4z M110.8,49.1h1.9
				c0.3,0,0.6,0,0.8-0.1s0.5-0.1,0.7-0.2c0.2-0.1,0.4-0.3,0.5-0.5s0.2-0.5,0.2-0.9c0-0.4-0.1-0.7-0.2-0.9c-0.1-0.2-0.3-0.4-0.5-0.5
				c-0.2-0.1-0.5-0.2-0.7-0.2c-0.3,0-0.6-0.1-0.8-0.1h-1.9V49.1z"/>
			<path class="st4" d="M118.6,45.3c0-0.3,0.1-0.5,0.3-0.7s0.4-0.3,0.7-0.3s0.5,0.1,0.7,0.3s0.3,0.4,0.3,0.7c0,0.3-0.1,0.5-0.3,0.7
				c-0.2,0.2-0.4,0.3-0.7,0.3s-0.5-0.1-0.7-0.3C118.7,45.8,118.6,45.6,118.6,45.3z M118.9,47.9h1.4V55h-1.4V47.9z"/>
			<path class="st4" d="M123.3,47.9h1.4V49h0c0.2-0.4,0.5-0.7,0.9-0.9c0.4-0.2,0.9-0.4,1.5-0.4c0.3,0,0.7,0.1,1,0.2
				c0.3,0.1,0.6,0.3,0.8,0.5c0.2,0.2,0.4,0.5,0.6,0.8c0.1,0.3,0.2,0.8,0.2,1.2V55h-1.3v-4.2c0-0.3,0-0.6-0.1-0.8
				c-0.1-0.2-0.2-0.4-0.4-0.6c-0.1-0.1-0.3-0.2-0.5-0.3c-0.2-0.1-0.4-0.1-0.6-0.1c-0.3,0-0.5,0-0.8,0.1c-0.2,0.1-0.4,0.2-0.6,0.4
				c-0.2,0.2-0.3,0.4-0.4,0.7c-0.1,0.3-0.1,0.7-0.1,1.1V55h-1.4V47.9z"/>
			<path class="st4" d="M133.6,51.9c0,0.3,0.1,0.6,0.2,0.8c0.1,0.3,0.3,0.5,0.5,0.7c0.2,0.2,0.5,0.3,0.8,0.4
				c0.3,0.1,0.6,0.1,0.9,0.1c0.4,0,0.8-0.1,1.1-0.3c0.3-0.2,0.6-0.5,0.9-0.8l1,0.8c-0.8,1-1.8,1.5-3.2,1.5c-0.6,0-1.1-0.1-1.5-0.3
				c-0.5-0.2-0.8-0.5-1.2-0.8s-0.6-0.7-0.7-1.2s-0.3-0.9-0.3-1.5s0.1-1,0.3-1.5s0.4-0.9,0.8-1.2c0.3-0.3,0.7-0.6,1.2-0.8
				c0.4-0.2,0.9-0.3,1.5-0.3c0.6,0,1.2,0.1,1.6,0.3s0.8,0.5,1.1,0.9c0.3,0.4,0.5,0.8,0.6,1.2c0.1,0.4,0.2,0.9,0.2,1.4v0.5H133.6z
				 M137.8,50.9c0-0.3-0.1-0.6-0.1-0.8c-0.1-0.2-0.2-0.5-0.4-0.7c-0.2-0.2-0.4-0.3-0.6-0.4c-0.3-0.1-0.6-0.2-0.9-0.2
				c-0.3,0-0.6,0.1-0.9,0.2s-0.5,0.3-0.7,0.5c-0.2,0.2-0.3,0.4-0.4,0.7c-0.1,0.2-0.2,0.5-0.2,0.7H137.8z"/>
			<path class="st4" d="M147.5,52.8c0.3,0.4,0.6,0.7,1,0.9c0.4,0.2,0.8,0.3,1.3,0.3c0.2,0,0.5,0,0.7-0.1s0.5-0.2,0.7-0.3
				c0.2-0.1,0.4-0.3,0.5-0.6c0.1-0.2,0.2-0.5,0.2-0.8c0-0.4-0.1-0.7-0.4-0.9c-0.3-0.2-0.6-0.4-1-0.5c-0.4-0.1-0.8-0.3-1.3-0.4
				c-0.5-0.1-0.9-0.3-1.3-0.6c-0.4-0.2-0.7-0.6-1-1c-0.3-0.4-0.4-1-0.4-1.6c0-0.3,0.1-0.6,0.2-1c0.1-0.3,0.3-0.7,0.6-1
				s0.7-0.5,1.1-0.7s1-0.3,1.6-0.3c0.6,0,1.1,0.1,1.7,0.2c0.5,0.2,1,0.5,1.4,1l-1.2,1.1c-0.2-0.3-0.4-0.5-0.8-0.7s-0.7-0.3-1.1-0.3
				c-0.4,0-0.7,0.1-1,0.2c-0.3,0.1-0.5,0.2-0.6,0.4s-0.3,0.3-0.3,0.5c-0.1,0.2-0.1,0.4-0.1,0.5c0,0.5,0.1,0.8,0.4,1
				c0.3,0.2,0.6,0.4,1,0.6c0.4,0.1,0.8,0.3,1.3,0.4c0.5,0.1,0.9,0.3,1.3,0.5c0.4,0.2,0.7,0.5,1,0.9c0.3,0.4,0.4,0.9,0.4,1.5
				c0,0.5-0.1,1-0.3,1.4c-0.2,0.4-0.5,0.8-0.8,1c-0.3,0.3-0.7,0.5-1.2,0.6c-0.5,0.2-0.9,0.2-1.4,0.2c-0.7,0-1.3-0.1-1.9-0.4
				c-0.6-0.2-1.1-0.6-1.5-1.1L147.5,52.8z"/>
			<path class="st4" d="M159.9,49.1H158v3.2c0,0.2,0,0.4,0,0.6c0,0.2,0,0.4,0.1,0.5c0.1,0.2,0.2,0.3,0.3,0.4
				c0.1,0.1,0.3,0.1,0.6,0.1c0.2,0,0.3,0,0.5,0c0.2,0,0.3-0.1,0.5-0.2v1.2c-0.2,0.1-0.4,0.2-0.6,0.2c-0.3,0-0.5,0.1-0.6,0.1
				c-0.5,0-0.9-0.1-1.2-0.2c-0.3-0.1-0.5-0.3-0.6-0.6c-0.1-0.2-0.2-0.5-0.2-0.8c0-0.3,0-0.6,0-0.9v-3.7h-1.6v-1.2h1.6v-2h1.4v2h1.9
				V49.1z"/>
		</g>
	</g>
</g>
</svg>
