<?xml version="1.0" encoding="UTF-8"?>
<svg width="13px" height="19px" viewBox="0 0 13 19" version="1.1" xmlns="http://www.w3.org/2000/svg" xmlns:xlink="http://www.w3.org/1999/xlink">
    <!-- Generator: Sketch 48.1 (47250) - http://www.bohemiancoding.com/sketch -->
    <title>icon_lock</title>
    <desc>Created with Sketch.</desc>
    <defs></defs>
    <g id="Page-1" stroke="none" stroke-width="1" fill="none" fill-rule="evenodd">
        <g id="icon_lock" fill="#000000" fill-rule="nonzero">
            <path d="M6.50004483,17.6131622 C3.65282069,17.6131622 1.34487241,15.227272 1.34487241,12.2838939 C1.34487241,9.34051585 3.65282069,6.95462561 6.50004483,6.95462561 C9.34726897,6.95462561 11.6552172,9.34051585 11.6552172,12.2838939 C11.6552172,15.227272 9.34726897,17.6131622 6.50004483,17.6131622 Z M3.47418276,4.52633293 C3.47418276,2.79872317 4.82887241,1.39828415 6.50004483,1.39828415 C8.17121724,1.39828415 9.5259069,2.79872317 9.5259069,4.52633293 L9.5259069,6.32901585 C7.63261379,5.29536951 5.36747586,5.29536951 3.47418276,6.32901585 L3.47418276,4.52633293 Z M10.8707345,7.30682073 L10.8707345,4.52633293 C10.8707345,2.03084512 8.91401034,0.0080402439 6.50004483,0.0080402439 C4.08607931,0.0080402439 2.12935517,2.03084512 2.12935517,4.52633293 L2.12935517,7.28828415 L2.12935517,7.30682073 C-0.5278,9.80230854 -0.725041379,14.0518207 1.68892414,16.798711 C4.10266552,19.5456012 8.21357931,19.7495037 10.8707345,17.2540159 C13.5278897,14.7587598 13.725131,10.5090159 11.3111655,7.76212561 C11.1715276,7.60317439 11.0244931,7.45117439 10.8707345,7.30682073 Z" id="Fill-3"></path>
        </g>
    </g>
</svg>