<?xml version="1.0" encoding="UTF-8"?>
<svg width="317px" height="277px" viewBox="0 0 317 277" version="1.1" xmlns="http://www.w3.org/2000/svg" xmlns:xlink="http://www.w3.org/1999/xlink">
    <!-- Generator: Sketch 48.1 (47250) - http://www.bohemiancoding.com/sketch -->
    <title>large_vendiagram</title>
    <desc>Created with Sketch.</desc>
    <defs></defs>
    <g id="Page-1" stroke="none" stroke-width="1" fill="none" fill-rule="evenodd">
        <g id="large_vendiagram">
            <circle id="Oval-4-Copy" fill="#47CCB9" fill-rule="nonzero" cx="159" cy="97" r="97"></circle>
            <circle id="Oval-4" fill="#018DEC" fill-rule="nonzero" opacity="0.9373" cx="97" cy="180" r="97"></circle>
            <circle id="Oval-4-Copy-2" fill="#FFAA04" fill-rule="nonzero" opacity="0.8475" cx="220" cy="180" r="97"></circle>
            <path d="M240.8,186.7 C240.6,186.5 240.4,186.3 240.1,186.2 C239.8,186.1 239.5,186 239.2,186 C238.8,186 238.5,186.1 238.2,186.2 C237.9,186.3 237.6,186.5 237.4,186.8 C237.2,187 237,187.3 236.9,187.7 C236.8,188.1 236.7,188.4 236.7,188.8 C236.7,189.2 236.8,189.6 236.9,189.9 C237,190.2 237.2,190.5 237.4,190.8 C237.6,191 237.9,191.2 238.2,191.4 C238.5,191.6 238.8,191.6 239.1,191.6 C239.5,191.6 239.8,191.5 240.1,191.4 C240.4,191.3 240.6,191 240.8,190.7 L242.4,191.9 C242,192.4 241.6,192.8 241,193 C240.4,193.2 239.9,193.4 239.3,193.4 C238.6,193.4 238,193.3 237.5,193.1 C236.9,192.9 236.5,192.6 236,192.2 C235.6,191.8 235.3,191.3 235,190.8 C234.8,190.2 234.7,189.6 234.7,189 C234.7,188.4 234.8,187.7 235,187.2 C235.2,186.6 235.5,186.2 236,185.8 C236.5,185.4 236.9,185.1 237.5,184.9 C238.1,184.7 238.7,184.6 239.3,184.6 C239.5,184.6 239.8,184.6 240.1,184.7 C240.4,184.7 240.6,184.8 240.9,184.9 C241.2,185 241.4,185.1 241.6,185.3 C241.8,185.5 242,185.7 242.2,185.9 L240.8,186.7 Z" id="Shape" fill="#FFFFFF" fill-rule="nonzero"></path>
            <path d="M248.8,192.3 C248.6,192.6 248.3,192.8 248,193 C247.7,193.1 247.3,193.2 246.9,193.2 C246.6,193.2 246.4,193.2 246.1,193.1 C245.8,193 245.6,192.9 245.4,192.8 C245.2,192.6 245.1,192.5 244.9,192.2 C244.8,192 244.7,191.7 244.7,191.4 C244.7,191.1 244.8,190.8 244.9,190.5 C245,190.2 245.2,190.1 245.4,189.9 C245.6,189.7 245.9,189.6 246.1,189.5 C246.4,189.4 246.7,189.4 246.9,189.3 C247.1,189.2 247.5,189.2 247.8,189.2 C248.1,189.2 248.4,189.2 248.6,189.2 C248.6,188.9 248.5,188.6 248.3,188.4 C248.1,188.2 247.8,188.1 247.5,188.1 C247.2,188.1 246.9,188.2 246.7,188.3 C246.5,188.4 246.2,188.6 246,188.8 L245,187.8 C245.3,187.5 245.7,187.3 246.2,187.1 C246.6,186.9 247.1,186.9 247.6,186.9 C248.1,186.9 248.6,187 248.9,187.1 C249.2,187.2 249.5,187.4 249.7,187.7 C249.9,188 250,188.3 250.1,188.6 C250.2,188.9 250.2,189.4 250.2,189.9 L250.2,192.9 L248.5,192.9 L248.5,192.3 L248.8,192.3 Z M248.4,190.4 C248.3,190.4 248.1,190.4 247.9,190.4 C247.7,190.4 247.5,190.4 247.3,190.5 C247.1,190.6 247,190.6 246.8,190.8 C246.7,190.9 246.6,191.1 246.6,191.3 C246.6,191.5 246.7,191.7 246.9,191.8 C247.1,191.9 247.3,192 247.5,192 C247.7,192 247.8,192 248,191.9 C248.2,191.9 248.3,191.8 248.4,191.7 C248.5,191.6 248.6,191.5 248.7,191.4 C248.8,191.3 248.8,191.1 248.8,190.9 L248.8,190.5 L248.4,190.5 L248.4,190.4 Z" id="Shape" fill="#FFFFFF" fill-rule="nonzero"></path>
            <path d="M253.5,187.2 L255.3,187.2 L255.3,188.1 C255.5,187.7 255.7,187.5 256,187.3 C256.3,187.1 256.6,187 257,187 C257.1,187 257.2,187 257.3,187 C257.4,187 257.5,187 257.6,187 L257.6,188.6 C257.5,188.6 257.3,188.5 257.2,188.5 C257.1,188.5 256.9,188.5 256.8,188.5 C256.5,188.5 256.2,188.5 256,188.6 C255.8,188.7 255.6,188.8 255.5,189 C255.4,189.2 255.3,189.4 255.3,189.6 C255.3,189.8 255.3,190.1 255.3,190.4 L255.3,192.8 L253.5,192.8 L253.5,187.2 Z" id="Shape" fill="#FFFFFF" fill-rule="nonzero"></path>
            <path d="M260.1,185.3 C260.1,185 260.2,184.8 260.4,184.6 C260.6,184.4 260.9,184.3 261.1,184.3 C261.3,184.3 261.6,184.4 261.8,184.6 C262,184.8 262.1,185.1 262.1,185.3 C262.1,185.5 262,185.8 261.8,186 C261.6,186.2 261.3,186.3 261.1,186.3 C260.9,186.3 260.6,186.2 260.4,186 C260.2,185.9 260.1,185.6 260.1,185.3 Z M260.3,187.2 L262.1,187.2 L262.1,193 L260.3,193 L260.3,187.2 Z" id="Shape" fill="#FFFFFF" fill-rule="nonzero"></path>
            <path d="M265.3,187.2 L267,187.2 L267,188 C267.1,187.9 267.1,187.8 267.2,187.7 C267.3,187.6 267.4,187.5 267.6,187.4 C267.7,187.3 267.9,187.2 268.1,187.2 C268.3,187.1 268.5,187.1 268.7,187.1 C269.2,187.1 269.5,187.2 269.8,187.3 C270.1,187.4 270.3,187.6 270.5,187.9 C270.7,188.1 270.8,188.4 270.8,188.8 C270.8,189.2 270.9,189.5 270.9,189.9 L270.9,193.1 L269.1,193.1 L269.1,190.2 C269.1,190 269.1,189.9 269.1,189.7 C269.1,189.5 269.1,189.4 269,189.2 C268.9,189 268.8,188.9 268.7,188.8 C268.6,188.7 268.4,188.7 268.2,188.7 C268,188.7 267.8,188.7 267.6,188.8 C267.5,188.9 267.3,189 267.3,189.1 C267.2,189.2 267.2,189.4 267.2,189.6 C267.2,189.8 267.2,190 267.2,190.2 L267.2,193.1 L265.4,193.1 L265.4,187.2 L265.3,187.2 Z" id="Shape" fill="#FFFFFF" fill-rule="nonzero"></path>
            <path d="M280.184,187.24 L280.184,192.484 C280.184,193.004003 280.120001,193.473998 279.992,193.894 C279.863999,194.314002 279.666001,194.669999 279.398,194.962 C279.129999,195.254001 278.792002,195.479999 278.384,195.64 C277.975998,195.800001 277.492003,195.88 276.932,195.88 C276.395997,195.88 275.888002,195.812001 275.408,195.676 C274.927998,195.539999 274.484002,195.292002 274.076,194.932 L274.94,193.756 C275.228001,194.020001 275.527998,194.223999 275.84,194.368 C276.152002,194.512001 276.511998,194.584 276.92,194.584 C277.264002,194.584 277.553999,194.536 277.79,194.44 C278.026001,194.344 278.213999,194.212001 278.354,194.044 C278.494001,193.875999 278.594,193.674001 278.654,193.438 C278.714,193.201999 278.744,192.940001 278.744,192.652 L278.744,192.232 L278.72,192.232 C278.511999,192.512001 278.236002,192.721999 277.892,192.862 C277.547998,193.002001 277.196002,193.072 276.836,193.072 C276.403998,193.072 276.012002,192.994001 275.66,192.838 C275.307998,192.681999 275.006001,192.472001 274.754,192.208 C274.501999,191.943999 274.308001,191.632002 274.172,191.272 C274.035999,190.911998 273.968,190.528002 273.968,190.12 C273.968,189.695998 274.031999,189.300002 274.16,188.932 C274.288001,188.563998 274.475999,188.244001 274.724,187.972 C274.972001,187.699999 275.269998,187.486001 275.618,187.33 C275.966002,187.173999 276.363998,187.096 276.812,187.096 C277.220002,187.096 277.599998,187.175999 277.952,187.336 C278.304002,187.496001 278.583999,187.751998 278.792,188.104 L278.816,188.104 L278.816,187.24 L280.184,187.24 Z M277.112,188.392 C276.855999,188.392 276.624001,188.434 276.416,188.518 C276.207999,188.602 276.030001,188.717999 275.882,188.866 C275.733999,189.014001 275.618,189.193999 275.534,189.406 C275.45,189.618001 275.408,189.851999 275.408,190.108 C275.408,190.340001 275.45,190.555999 275.534,190.756 C275.618,190.956001 275.735999,191.131999 275.888,191.284 C276.040001,191.436001 276.219999,191.556 276.428,191.644 C276.636001,191.732 276.859999,191.776 277.1,191.776 C277.364001,191.776 277.601999,191.732 277.814,191.644 C278.026001,191.556 278.205999,191.438001 278.354,191.29 C278.502001,191.141999 278.616,190.964001 278.696,190.756 C278.776,190.547999 278.816,190.324001 278.816,190.084 C278.816,189.579997 278.664002,189.172002 278.36,188.86 C278.055998,188.547998 277.640003,188.392 277.112,188.392 Z" id="g" fill="#FFFFFF"></path>
            <path d="M45.1,184.5 L48.3,184.5 C48.7,184.5 49.2,184.5 49.5,184.6 C49.9,184.7 50.2,184.8 50.5,185 C50.8,185.2 51,185.5 51.2,185.8 C51.4,186.1 51.5,186.6 51.5,187.1 C51.5,187.6 51.4,188 51.3,188.3 C51.2,188.6 50.9,188.9 50.6,189.1 C50.3,189.3 50,189.4 49.6,189.5 C49.2,189.6 48.8,189.6 48.4,189.6 L47,189.6 L47,192.9 L45.1,192.9 L45.1,184.5 Z M47,188.1 L48.2,188.1 C48.4,188.1 48.5,188.1 48.7,188.1 C48.9,188.1 49,188 49.1,187.9 C49.2,187.8 49.3,187.7 49.4,187.6 C49.5,187.5 49.5,187.3 49.5,187.1 C49.5,186.9 49.4,186.7 49.3,186.6 C49.2,186.5 49.1,186.4 48.9,186.3 C48.7,186.2 48.6,186.2 48.4,186.2 C48.2,186.2 48,186.2 47.8,186.2 L46.8,186.2 L46.8,188.1 L47,188.1 Z" id="Shape" fill="#FFFFFF" fill-rule="nonzero"></path>
            <path d="M58,192.3 C57.8,192.6 57.5,192.8 57.2,193 C56.9,193.1 56.5,193.2 56.1,193.2 C55.8,193.2 55.6,193.2 55.3,193.1 C55,193 54.8,192.9 54.6,192.8 C54.4,192.6 54.3,192.5 54.1,192.2 C54,192 53.9,191.7 53.9,191.4 C53.9,191.1 54,190.8 54.1,190.5 C54.2,190.3 54.4,190.1 54.6,189.9 C54.8,189.7 55.1,189.6 55.3,189.5 C55.6,189.4 55.9,189.4 56.1,189.3 C56.3,189.2 56.7,189.2 57,189.2 C57.3,189.2 57.6,189.2 57.8,189.2 C57.8,188.9 57.7,188.6 57.5,188.4 C57.3,188.2 57,188.1 56.7,188.1 C56.4,188.1 56.1,188.2 55.9,188.3 C55.7,188.4 55.4,188.6 55.2,188.8 L54.2,187.8 C54.5,187.5 54.9,187.3 55.4,187.1 C55.8,186.9 56.3,186.9 56.8,186.9 C57.3,186.9 57.8,187 58.1,187.1 C58.4,187.2 58.7,187.4 58.9,187.7 C59.1,188 59.2,188.3 59.3,188.6 C59.4,188.9 59.4,189.4 59.4,189.9 L59.4,192.9 L57.7,192.9 L57.7,192.3 L58,192.3 Z M57.6,190.4 C57.5,190.4 57.3,190.4 57.1,190.4 C56.9,190.4 56.7,190.4 56.5,190.5 C56.3,190.6 56.2,190.6 56,190.8 C55.9,190.9 55.8,191.1 55.8,191.3 C55.8,191.5 55.9,191.7 56.1,191.8 C56.3,191.9 56.5,192 56.7,192 C56.9,192 57,192 57.2,191.9 C57.4,191.9 57.5,191.8 57.6,191.7 C57.7,191.6 57.8,191.5 57.9,191.4 C58,191.3 58,191.1 58,190.9 L58,190.5 L57.6,190.5 L57.6,190.4 Z" id="Shape" fill="#FFFFFF" fill-rule="nonzero"></path>
            <path d="M66,188.9 C65.7,188.6 65.4,188.4 65,188.4 C64.8,188.4 64.7,188.4 64.6,188.5 C64.5,188.6 64.4,188.7 64.4,188.9 C64.4,189 64.5,189.1 64.6,189.2 C64.7,189.3 64.9,189.3 65.2,189.4 C65.5,189.5 65.7,189.5 65.9,189.6 C66.2,189.7 66.4,189.8 66.6,189.9 C66.8,190 67,190.2 67.2,190.4 C67.3,190.6 67.4,190.9 67.4,191.3 C67.4,191.7 67.3,192 67.2,192.2 C67.1,192.4 66.8,192.6 66.6,192.8 C66.3,192.9 66.1,193.1 65.7,193.1 C65.4,193.2 65.1,193.2 64.8,193.2 C64.4,193.2 64,193.1 63.6,193 C63.2,192.9 62.8,192.7 62.5,192.4 L63.6,191.2 C63.8,191.4 64,191.6 64.2,191.7 C64.4,191.8 64.6,191.9 64.9,191.9 C65.1,191.9 65.3,191.9 65.5,191.8 C65.7,191.7 65.8,191.6 65.8,191.5 C65.8,191.3 65.7,191.2 65.6,191.2 C65.5,191.1 65.3,191.1 65,191 C64.7,190.9 64.5,190.9 64.3,190.8 C64,190.7 63.8,190.6 63.6,190.5 C63.4,190.4 63.2,190.2 63,190 C62.8,189.8 62.8,189.5 62.8,189.1 C62.8,188.8 62.9,188.5 63,188.2 C63.1,188 63.3,187.7 63.6,187.6 C63.9,187.5 64.1,187.3 64.4,187.2 C64.7,187.1 65,187.1 65.3,187.1 C65.7,187.1 66.1,187.2 66.5,187.3 C66.9,187.4 67.2,187.6 67.5,187.9 L66,188.9 Z" id="Shape" fill="#FFFFFF" fill-rule="nonzero"></path>
            <path d="M73.4,188.9 C73.1,188.6 72.8,188.4 72.4,188.4 C72.2,188.4 72.1,188.4 72,188.5 C71.9,188.6 71.8,188.7 71.8,188.9 C71.8,189 71.9,189.1 72,189.2 C72.1,189.3 72.3,189.3 72.6,189.4 C72.9,189.5 73.1,189.5 73.3,189.6 C73.6,189.7 73.8,189.8 74,189.9 C74.2,190 74.4,190.2 74.6,190.4 C74.7,190.6 74.8,190.9 74.8,191.3 C74.8,191.7 74.7,192 74.6,192.2 C74.5,192.4 74.2,192.6 74,192.8 C73.7,192.9 73.5,193.1 73.1,193.1 C72.8,193.2 72.5,193.2 72.2,193.2 C71.8,193.2 71.4,193.1 71,193 C70.6,192.9 70.2,192.7 69.9,192.4 L71,191.2 C71.2,191.4 71.4,191.6 71.6,191.7 C71.8,191.8 72,191.9 72.3,191.9 C72.5,191.9 72.7,191.9 72.9,191.8 C73.1,191.7 73.2,191.6 73.2,191.5 C73.2,191.3 73.1,191.2 73,191.2 C72.9,191.1 72.7,191.1 72.4,191 C72.1,190.9 71.9,190.9 71.7,190.8 C71.4,190.7 71.2,190.6 71,190.5 C70.8,190.4 70.6,190.2 70.4,190 C70.2,189.8 70.2,189.5 70.2,189.1 C70.2,188.8 70.3,188.5 70.4,188.2 C70.5,188 70.7,187.7 71,187.6 C71.3,187.5 71.5,187.3 71.8,187.2 C72.1,187.1 72.4,187.1 72.7,187.1 C73.1,187.1 73.5,187.2 73.9,187.3 C74.3,187.4 74.6,187.6 74.9,187.9 L73.4,188.9 Z" id="Shape" fill="#FFFFFF" fill-rule="nonzero"></path>
            <path d="M77.5,185.3 C77.5,185 77.6,184.8 77.8,184.6 C78,184.4 78.3,184.3 78.5,184.3 C78.7,184.3 79,184.4 79.2,184.6 C79.4,184.8 79.5,185.1 79.5,185.3 C79.5,185.5 79.4,185.8 79.2,186 C79,186.2 78.8,186.3 78.5,186.3 C78.2,186.3 78,186.2 77.8,186 C77.6,185.9 77.5,185.6 77.5,185.3 Z M77.6,187.2 L79.4,187.2 L79.4,193 L77.6,193 L77.6,187.2 Z" id="Shape" fill="#FFFFFF" fill-rule="nonzero"></path>
            <path d="M82.4,190.1 C82.4,189.6 82.5,189.2 82.7,188.8 C82.9,188.4 83.1,188.1 83.4,187.8 C83.7,187.5 84,187.3 84.4,187.2 C84.8,187.1 85.2,187 85.7,187 C86.1,187 86.6,187.1 87,187.2 C87.4,187.3 87.7,187.5 88,187.8 C88.3,188.1 88.5,188.4 88.7,188.8 C88.9,189.2 89,189.6 89,190.1 C89,190.6 88.9,191 88.7,191.4 C88.5,191.8 88.3,192.1 88,192.4 C87.7,192.7 87.4,192.9 87,193 C86.6,193.1 86.2,193.2 85.7,193.2 C85.3,193.2 84.8,193.1 84.4,193 C84,192.9 83.7,192.7 83.4,192.4 C83.1,192.1 82.9,191.8 82.7,191.4 C82.5,191 82.4,190.5 82.4,190.1 Z M84.2,190.1 C84.2,190.5 84.3,190.9 84.6,191.2 C84.9,191.5 85.2,191.6 85.7,191.6 C86.2,191.6 86.5,191.5 86.8,191.2 C87.1,190.9 87.2,190.6 87.2,190.1 C87.2,189.7 87.1,189.3 86.8,189 C86.5,188.7 86.2,188.6 85.7,188.6 C85.2,188.6 84.9,188.7 84.6,189 C84.3,189.3 84.2,189.6 84.2,190.1 Z" id="Shape" fill="#FFFFFF" fill-rule="nonzero"></path>
            <path d="M91.8,187.2 L93.5,187.2 L93.5,188 C93.6,187.9 93.6,187.8 93.7,187.7 C93.8,187.6 93.9,187.5 94.1,187.4 C94.3,187.3 94.4,187.2 94.6,187.2 C94.8,187.1 95,187.1 95.2,187.1 C95.7,187.1 96,187.2 96.3,187.3 C96.6,187.4 96.8,187.6 97,187.9 C97.2,188.1 97.3,188.4 97.3,188.8 C97.4,189.1 97.4,189.5 97.4,189.9 L97.4,193.1 L95.6,193.1 L95.6,190.2 C95.6,190 95.6,189.9 95.6,189.7 C95.6,189.5 95.6,189.4 95.5,189.2 C95.4,189 95.3,188.9 95.2,188.8 C95.1,188.7 94.9,188.7 94.7,188.7 C94.5,188.7 94.3,188.7 94.1,188.8 C93.9,188.9 93.8,189 93.8,189.1 C93.7,189.2 93.7,189.4 93.7,189.6 C93.7,189.8 93.7,190 93.7,190.2 L93.7,193.1 L91.9,193.1 L91.9,187.2 L91.8,187.2 Z" id="Shape" fill="#FFFFFF" fill-rule="nonzero"></path>
            <polygon id="Shape" fill="#FFFFFF" fill-rule="nonzero" points="144.2 50.5 146.1 50.5 146.1 57.3 149.6 57.3 149.6 59 144.3 59 144.3 50.5"></polygon>
            <path d="M151.9,56.1 C151.9,55.6 152,55.2 152.2,54.8 C152.4,54.4 152.6,54.1 152.9,53.8 C153.2,53.5 153.5,53.3 153.9,53.2 C154.3,53.1 154.7,53 155.2,53 C155.6,53 156.1,53.1 156.5,53.2 C156.9,53.3 157.2,53.5 157.5,53.8 C157.8,54.1 158,54.4 158.2,54.8 C158.4,55.2 158.5,55.6 158.5,56.1 C158.5,56.6 158.4,57 158.2,57.4 C158,57.8 157.8,58.1 157.5,58.4 C157.2,58.7 156.9,58.9 156.5,59 C156.1,59.1 155.7,59.2 155.2,59.2 C154.8,59.2 154.3,59.1 153.9,59 C153.5,58.9 153.2,58.7 152.9,58.4 C152.6,58.1 152.4,57.8 152.2,57.4 C152,57 151.9,56.5 151.9,56.1 Z M153.7,56.1 C153.7,56.5 153.8,56.9 154.1,57.2 C154.4,57.5 154.7,57.6 155.2,57.6 C155.7,57.6 156,57.5 156.3,57.2 C156.6,56.9 156.7,56.6 156.7,56.1 C156.7,55.7 156.6,55.3 156.3,55 C156,54.7 155.7,54.6 155.2,54.6 C154.7,54.6 154.4,54.7 154.1,55 C153.9,55.3 153.7,55.6 153.7,56.1 Z" id="Shape" fill="#FFFFFF" fill-rule="nonzero"></path>
            <polygon id="Shape" fill="#FFFFFF" fill-rule="nonzero" points="160.7 53.2 162.6 53.2 164.1 57.2 164.1 57.2 165.5 53.2 167.3 53.2 165 59 163.1 59"></polygon>
            <path d="M175.3,58 C175,58.4 174.6,58.7 174.2,58.9 C173.8,59.1 173.3,59.2 172.8,59.2 C172.4,59.2 171.9,59.1 171.5,59 C171.1,58.9 170.8,58.7 170.5,58.4 C170.2,58.1 170,57.8 169.8,57.4 C169.6,57 169.5,56.6 169.5,56.1 C169.5,55.6 169.6,55.2 169.8,54.8 C170,54.4 170.2,54.1 170.5,53.8 C170.8,53.5 171.1,53.3 171.5,53.2 C171.9,53.1 172.3,53 172.8,53 C173.2,53 173.6,53.1 173.9,53.2 C174.2,53.3 174.5,53.5 174.8,53.8 C175,54.1 175.2,54.4 175.3,54.8 C175.4,55.2 175.5,55.6 175.5,56.1 L175.5,56.7 L171.3,56.7 C171.4,57 171.5,57.3 171.8,57.5 C172.1,57.7 172.3,57.8 172.7,57.8 C173,57.8 173.2,57.7 173.5,57.6 C173.7,57.5 173.9,57.3 174,57.1 L175.3,58 Z M173.7,55.4 C173.7,55.1 173.6,54.8 173.4,54.6 C173.2,54.4 172.9,54.3 172.6,54.3 C172.4,54.3 172.2,54.3 172.1,54.4 C171.9,54.5 171.8,54.5 171.7,54.6 C171.6,54.7 171.5,54.8 171.4,54.9 C171.3,55 171.3,55.2 171.3,55.3 L173.7,55.3 L173.7,55.4 Z" id="Shape" fill="#FFFFFF" fill-rule="nonzero"></path>
            <path d="M158.5,69.5 L70.5,168.5" id="Line-4" stroke="#FFFFFF" stroke-width="2" stroke-linecap="square"></path>
            <path d="M113.5,188.5 L208.8,188.5" id="Line-5" stroke="#FFFFFF" stroke-width="2" stroke-linecap="square"></path>
            <path d="M159.5,69.5 L247.5,168.5" id="Line-4_1_" stroke="#FFFFFF" stroke-width="2" stroke-linecap="square"></path>
            <path d="M158.026244,142.020253 C161.123145,139.026582 165.876855,139.026582 168.973756,142.020253 L169.176777,142.223223 C172.005543,145.261294 171.941261,150.114569 168.975989,152.977561 L157.5,164.351992 L157.324011,164.177561 L146.023223,152.976777 L145.923223,152.876777 C145.885723,152.839277 145.885723,152.839277 145.82015,152.773649 C142.92731,149.777493 143.023833,144.919133 146.023223,142.023223 C149.020359,139.026087 153.876343,139.026087 156.976777,142.023223 L157.500006,142.546453 L158.026244,142.020253 Z M159.227194,143.31934 L157.500004,145.046451 L155.776777,143.323223 C153.376151,141.026887 149.623849,141.026887 147.227194,143.31934 C147.210723,143.335723 147.210723,143.335723 147.173223,143.373223 L147.123223,143.423223 C144.843143,145.703304 144.90731,149.360864 147.223223,151.676777 L157.324105,161.677654 L157.5,161.851807 L167.776777,151.676777 L167.876777,151.576777 C170.089603,149.258676 170.057544,145.603991 167.776777,143.323223 C165.376151,141.026887 161.623849,141.026887 159.227194,143.31934 Z" id="Combined-Shape" fill="#FFFFFF"></path>
        </g>
    </g>
</svg>