<?xml version="1.0" encoding="UTF-8"?>
<svg width="165px" height="165px" viewBox="0 0 165 165" version="1.1" xmlns="http://www.w3.org/2000/svg" xmlns:xlink="http://www.w3.org/1999/xlink">
    <!-- Generator: Sketch 48.1 (47250) - http://www.bohemiancoding.com/sketch -->
    <title>large_globe1</title>
    <desc>Created with Sketch.</desc>
    <defs></defs>
    <g id="Page-1" stroke="none" stroke-width="1" fill="none" fill-rule="evenodd">
        <g id="large_globe1" fill-rule="nonzero">
            <path d="M164.5,82.5 C164.5,37.2 127.8,0.5 82.5,0.5 C37.2,0.5 0.5,37.2 0.5,82.5 C0.5,127.8 37.2,164.5 82.5,164.5 C127.8,164.5 164.5,127.8 164.5,82.5 Z" id="Shape" fill="#353635"></path>
            <path d="M121.2,43.8 C110.8,33.4 97.1,27.8 82.5,27.8 C67.9,27.8 54.2,33.5 43.8,43.8 C33.4,54.1 27.8,67.9 27.8,82.5 C27.8,97.1 33.5,110.8 43.8,121.2 C54.2,131.6 67.9,137.2 82.5,137.2 C97.1,137.2 110.8,131.5 121.2,121.2 C131.6,110.8 137.2,97.1 137.2,82.5 C137.2,67.9 131.5,54.2 121.2,43.8 Z M66.3,34.9 C63.6,37.5 61.2,40.6 59,44.2 C58.5,45.3 57.9,46.2 57.4,47.3 L46.6,47.3 C51.9,41.8 58.6,37.5 66.3,34.9 Z M42.6,51.9 L55.2,51.9 C51.7,60.3 49.9,70.1 49.7,80.3 L32.2,80.3 C32.7,69.6 36.6,59.7 42.6,51.9 Z M42.6,113.1 C36.4,105.1 32.6,95.2 32.2,84.7 L49.7,84.7 C49.9,94.9 51.9,104.8 55.2,113.1 L42.6,113.1 Z M46.4,117.5 L57.2,117.5 C57.7,118.6 58.3,119.7 58.8,120.6 C61,124.4 63.4,127.5 66.1,129.9 C58.6,127.5 51.9,123.2 46.4,117.5 Z M80.3,132.6 C73.7,131.7 67.5,126.8 62.8,118.4 C62.6,118 62.4,117.7 62.3,117.5 L80.4,117.5 L80.3,132.6 Z M80.3,113.1 L60.1,113.1 C56.5,104.9 54.4,95 54.1,84.7 L80.4,84.7 L80.3,113.1 Z M80.3,80.3 L54.1,80.3 C54.3,69.9 56.5,60.1 60.1,51.9 L80.3,51.9 L80.3,80.3 Z M80.3,47.5 L62.3,47.5 C62.5,47.1 62.7,46.8 62.8,46.6 C67.7,38.2 73.7,33.3 80.3,32.4 L80.3,47.5 Z M122.4,51.9 C128.6,59.9 132.4,69.8 132.8,80.3 L115.3,80.3 C115.1,70.1 113.1,60.2 109.8,51.9 L122.4,51.9 Z M118.6,47.5 L107.8,47.5 C107.3,46.4 106.7,45.3 106.2,44.4 C104,40.6 101.6,37.5 98.9,35.1 C106.4,37.5 113.1,41.8 118.6,47.5 Z M84.7,32.4 C91.3,33.3 97.5,38.2 102.2,46.6 C102.4,47 102.6,47.3 102.7,47.5 L84.7,47.5 L84.7,32.4 Z M84.7,51.9 L104.9,51.9 C108.5,60.1 110.6,70 110.9,80.3 L84.7,80.3 L84.7,51.9 Z M84.7,84.7 L111,84.7 C110.8,95.1 108.6,104.9 105,113.1 L84.7,113.1 L84.7,84.7 Z M84.7,132.6 L84.7,117.5 L102.8,117.5 C102.6,117.9 102.4,118.2 102.3,118.4 C97.5,126.8 91.3,131.7 84.7,132.6 Z M98.7,130.1 C101.4,127.5 103.8,124.4 106,120.8 C106.5,119.7 107.1,118.8 107.6,117.7 L118.4,117.7 C113.1,123.2 106.4,127.5 98.7,130.1 Z M122.4,113.1 L109.8,113.1 C113.3,104.7 115.1,94.9 115.3,84.7 L132.8,84.7 C132.3,95.4 128.4,105.3 122.4,113.1 Z" id="Shape" fill="#FFFFFF"></path>
            <circle id="Oval" fill="#58C2B4" cx="52.1" cy="82.4" r="5.7"></circle>
            <circle id="Oval" fill="#4DA9DE" cx="105.1" cy="50.4" r="5.7"></circle>
            <circle id="Oval" fill="#FBAA19" cx="105.3" cy="115.3" r="5.7"></circle>
        </g>
    </g>
</svg>