<?xml version="1.0" encoding="UTF-8"?>
<svg width="164px" height="164px" viewBox="0 0 164 164" version="1.1" xmlns="http://www.w3.org/2000/svg" xmlns:xlink="http://www.w3.org/1999/xlink">
    <!-- Generator: Sketch 48.1 (47250) - http://www.bohemiancoding.com/sketch -->
    <title>large_globe3</title>
    <desc>Created with Sketch.</desc>
    <defs></defs>
    <g id="Page-1" stroke="none" stroke-width="1" fill="none" fill-rule="evenodd">
        <g id="large_globe3">
            <path d="M163.8,81.6 C163.8,36.6 127.4,0.1 82.3,0.1 C37.3,0.1 0.8,36.6 0.8,81.6 C0.8,126.6 37.3,163.1 82.3,163.1 C127.4,163.1 163.8,126.6 163.8,81.6 Z" id="Shape" fill="#353635" fill-rule="nonzero"></path>
            <path d="M113.1,50.6 C104.8,42.3 94,37.8 82.3,37.8 C70.6,37.8 59.8,42.3 51.5,50.6 C43.2,58.9 38.9,69.8 38.9,81.4 C38.9,93 43.4,103.9 51.7,112.2 C60,120.5 70.8,125 82.5,125 C94.2,125 105,120.5 113.3,112.2 C121.6,103.9 126.1,93.1 126.1,81.4 C126.1,69.7 121.4,58.9 113.1,50.6 Z M69.5,43.5 C67.3,45.5 65.4,48 63.7,50.9 C63.3,51.8 62.8,52.5 62.4,53.4 L53.8,53.4 C58,49 63.4,45.6 69.5,43.5 Z M50.6,57 L60.6,57 C57.8,63.7 56.4,71.5 56.2,79.6 L42.4,79.6 C42.8,71.1 45.8,63.3 50.6,57 Z M50.6,105.8 C45.7,99.4 42.6,91.6 42.3,83.2 L56.2,83.2 C56.3,91.3 57.9,99.2 60.6,105.8 L50.6,105.8 Z M53.7,109.2 L62.3,109.2 C62.7,110.1 63.2,110.9 63.6,111.7 C65.3,114.7 67.2,117.2 69.4,119.1 C63.4,117.2 58,113.7 53.7,109.2 Z M80.7,121.3 C75.5,120.6 70.5,116.7 66.8,110 C66.7,109.7 66.5,109.4 66.4,109.3 L80.8,109.3 L80.7,121.3 Z M80.7,105.8 L64.6,105.8 C61.7,99.3 60.1,91.4 59.8,83.2 L80.7,83.2 L80.7,105.8 Z M80.7,79.6 L59.8,79.6 C59.9,71.3 61.7,63.5 64.6,57 L80.7,57 L80.7,79.6 Z M80.7,53.5 L66.3,53.5 C66.4,53.2 66.6,52.9 66.7,52.8 C70.6,46.1 75.4,42.2 80.6,41.5 L80.7,53.5 Z M114.2,57 C119.1,63.4 122.2,71.2 122.5,79.6 L108.6,79.6 C108.5,71.5 106.9,63.6 104.2,57 L114.2,57 Z M111.1,53.5 L102.5,53.5 C102.1,52.6 101.6,51.8 101.2,51 C99.5,48 97.6,45.5 95.4,43.6 C101.4,45.6 106.8,49 111.1,53.5 Z M84.1,41.5 C89.3,42.2 94.3,46.1 98,52.8 C98.1,53.1 98.3,53.4 98.4,53.5 L84.1,53.5 L84.1,41.5 Z M84.1,57 L100.2,57 C103.1,63.5 104.7,71.4 105,79.6 L84.1,79.6 L84.1,57 Z M84.1,83.1 L105,83.1 C104.9,91.4 103.1,99.2 100.2,105.7 L84.1,105.7 L84.1,83.1 Z M84.1,121.3 L84.1,109.3 L98.5,109.3 C98.4,109.6 98.2,109.9 98.1,110 C94.3,116.6 89.4,120.6 84.1,121.3 Z M95.3,119.2 C97.5,117.2 99.4,114.7 101.1,111.8 C101.5,110.9 102,110.2 102.4,109.3 L111,109.3 C106.8,113.7 101.4,117.2 95.3,119.2 Z M114.2,105.8 L104.2,105.8 C107,99.1 108.4,91.3 108.6,83.2 L122.5,83.2 C122,91.7 118.9,99.5 114.2,105.8 Z" id="Shape" fill="#FFFFFF" fill-rule="nonzero"></path>
            <circle id="Oval" fill="#FBAA19" fill-rule="nonzero" cx="82.7" cy="81.4" r="5.6"></circle>
            <path d="M82.7,17.7 L82.7,27" id="Shape" stroke="#FFFFFF" stroke-width="3.7221" stroke-linecap="round"></path>
            <path d="M82.7,134.9 L82.7,144.2" id="Shape" stroke="#FFFFFF" stroke-width="3.7221" stroke-linecap="round"></path>
            <path d="M145.9,80.9 L136.6,80.9" id="Shape" stroke="#FFFFFF" stroke-width="3.7221" stroke-linecap="round"></path>
            <path d="M28.8,80.9 L19.5,80.9" id="Shape" stroke="#FFFFFF" stroke-width="3.7221" stroke-linecap="round"></path>
            <path d="M127.4,125.7 L120.8,119.1" id="Shape" stroke="#FFFFFF" stroke-width="3.7221" stroke-linecap="round"></path>
            <path d="M44.6,42.8 L38,36.2" id="Shape" stroke="#FFFFFF" stroke-width="3.7221" stroke-linecap="round"></path>
            <path d="M38,125.7 L44.6,119.1" id="Shape" stroke="#FFFFFF" stroke-width="3.7221" stroke-linecap="round"></path>
            <path d="M120.8,42.8 L127.4,36.2" id="Shape" stroke="#FFFFFF" stroke-width="3.7221" stroke-linecap="round"></path>
            <circle id="Oval" fill="#58C2B4" fill-rule="nonzero" cx="103.1" cy="57" r="5.6"></circle>
            <circle id="Oval" fill="#4DA9DE" fill-rule="nonzero" cx="61.7" cy="105.8" r="5.6"></circle>
        </g>
    </g>
</svg>