<?xml version="1.0" encoding="UTF-8"?>
<svg width="164px" height="165px" viewBox="0 0 164 165" version="1.1" xmlns="http://www.w3.org/2000/svg" xmlns:xlink="http://www.w3.org/1999/xlink">
    <!-- Generator: Sketch 48.1 (47250) - http://www.bohemiancoding.com/sketch -->
    <title>large_globe2</title>
    <desc>Created with Sketch.</desc>
    <defs></defs>
    <g id="Page-1" stroke="none" stroke-width="1" fill="none" fill-rule="evenodd">
        <g id="large_globe2">
            <path d="M163.3,82.4 C163.3,37.3 126.8,0.7 81.6,0.7 C36.6,0.7 0,37.3 0,82.4 C0,127.5 36.6,164.1 81.7,164.1 C126.8,164.1 163.3,127.5 163.3,82.4 Z" id="Shape" fill="#353635" fill-rule="nonzero"></path>
            <path d="M61.1,136.6 C39.2,128.2 23.7,107 23.7,82.2" id="Shape" stroke="#FFFFFF" stroke-width="3.7322" stroke-linecap="round"></path>
            <path d="M136.7,102.2 C128.5,124.5 107.1,140.4 82,140.4" id="Shape" stroke="#FFFFFF" stroke-width="3.7322" stroke-linecap="round"></path>
            <path d="M102.4,27.6 C124.5,35.9 140.2,57.2 140.2,82.2" id="Shape" stroke="#FFFFFF" stroke-width="3.7322" stroke-linecap="round"></path>
            <path d="M26.9,63.2 C34.8,40.3 56.4,24 82,24" id="Shape" stroke="#FFFFFF" stroke-width="3.7322" stroke-linecap="round"></path>
            <circle id="Oval" fill="#58C2B4" fill-rule="nonzero" cx="81.7" cy="140.9" r="5.7"></circle>
            <circle id="Oval" fill="#79D1EE" fill-rule="nonzero" cx="81.7" cy="24" r="5.7"></circle>
            <circle id="Oval" fill="#4DA9DE" fill-rule="nonzero" cx="23.7" cy="82.2" r="5.7"></circle>
            <circle id="Oval" fill="#FBAA19" fill-rule="nonzero" cx="140.2" cy="83.9" r="5.7"></circle>
            <path d="M112.5,51.3 C104.2,43 93.3,38.5 81.7,38.5 C70.1,38.5 59.1,43 50.8,51.3 C42.5,59.6 38,70.5 38,82.2 C38,93.9 42.5,104.7 50.8,113 C59.1,121.3 70,125.8 81.6,125.8 C93.2,125.8 104.1,121.3 112.4,113 C120.7,104.7 125.2,93.8 125.2,82.2 C125.2,70.6 120.8,59.6 112.5,51.3 Z M68.7,44.2 C66.5,46.2 64.6,48.7 62.9,51.6 C62.5,52.5 62,53.2 61.6,54.1 L53,54.1 C57.2,49.7 62.6,46.2 68.7,44.2 Z M49.8,57.7 L59.8,57.7 C57,64.4 55.6,72.2 55.4,80.4 L41.4,80.4 C41.9,71.8 45,64 49.8,57.7 Z M49.8,106.6 C44.9,100.2 41.8,92.3 41.5,83.9 L55.5,83.9 C55.6,92 57.2,99.9 59.9,106.6 L49.8,106.6 Z M52.9,110.1 L61.5,110.1 C61.9,111 62.4,111.8 62.8,112.6 C64.5,115.7 66.4,118.1 68.6,120 C62.6,118.1 57.2,114.6 52.9,110.1 Z M79.9,122.2 C74.7,121.5 69.7,117.5 65.9,110.9 C65.8,110.6 65.6,110.3 65.5,110.2 L79.9,110.2 L79.9,122.2 Z M79.9,106.6 L63.8,106.6 C60.9,100.1 59.3,92.2 59,83.9 L79.9,83.9 L79.9,106.6 Z M79.9,80.4 L59,80.4 C59.1,72.1 60.9,64.3 63.8,57.7 L79.9,57.7 L79.9,80.4 Z M79.9,54.2 L65.5,54.2 C65.6,53.9 65.8,53.6 65.9,53.5 C69.8,46.8 74.6,42.9 79.9,42.2 L79.9,54.2 Z M113.5,57.7 C118.4,64.1 121.5,72 121.8,80.4 L107.8,80.4 C107.7,72.3 106.1,64.4 103.4,57.7 L113.5,57.7 Z M110.5,54.2 L101.9,54.2 C101.5,53.3 101,52.5 100.6,51.7 C98.9,48.6 97,46.2 94.8,44.3 C100.7,46.2 106.1,49.7 110.5,54.2 Z M83.4,42.2 C88.6,42.9 93.6,46.9 97.4,53.5 C97.5,53.8 97.7,54.1 97.8,54.2 L83.4,54.2 L83.4,42.2 Z M83.4,57.7 L99.5,57.7 C102.4,64.2 104,72.1 104.3,80.4 L83.4,80.4 L83.4,57.7 Z M83.4,83.9 L104.3,83.9 C104.2,92.2 102.4,100 99.5,106.6 L83.4,106.6 L83.4,83.9 Z M83.4,122.2 L83.4,110.1 L97.8,110.1 C97.7,110.4 97.5,110.7 97.4,110.8 C93.6,117.5 88.6,121.4 83.4,122.2 Z M94.6,120.1 C96.8,118.1 98.7,115.6 100.4,112.7 C100.8,111.8 101.3,111.1 101.7,110.2 L110.3,110.2 C106.1,114.6 100.7,118.1 94.6,120.1 Z M113.5,106.6 L103.5,106.6 C106.3,99.9 107.7,92.1 107.9,83.9 L121.9,83.9 C121.4,92.5 118.3,100.3 113.5,106.6 Z" id="Shape" fill="#FFFFFF" fill-rule="nonzero"></path>
        </g>
    </g>
</svg>