<?xml version="1.0" encoding="UTF-8"?>
<svg width="15px" height="12px" viewBox="0 0 15 12" version="1.1" xmlns="http://www.w3.org/2000/svg" xmlns:xlink="http://www.w3.org/1999/xlink">
    <!-- Generator: Sketch 48.2 (47327) - http://www.bohemiancoding.com/sketch -->
    <title>Page 1</title>
    <desc>Created with Sketch.</desc>
    <defs></defs>
    <g id="Footer" stroke="none" stroke-width="1" fill="none" fill-rule="evenodd" transform="translate(-1023.000000, -424.000000)">
        <g fill="#FCB832" id="Page-1">
            <path d="M1037.41395,424.221009 C1036.8265,424.568524 1036.17482,424.821034 1035.48214,424.95704 C1034.92829,424.368015 1034.13778,424 1033.26279,424 C1031.58394,424 1030.22229,425.356557 1030.22229,427.029626 C1030.22229,427.267136 1030.24946,427.497646 1030.30035,427.719655 C1027.77319,427.59315 1025.53259,426.387099 1024.0326,424.554523 C1023.77124,425.001542 1023.62055,425.522063 1023.62055,426.077587 C1023.62055,427.12813 1024.15859,428.055669 1024.9738,428.598692 C1024.47578,428.582691 1024.00642,428.446685 1023.59634,428.220176 L1023.59634,428.258177 C1023.59634,429.725739 1024.64475,430.95029 1026.03605,431.229301 C1025.78062,431.298304 1025.51234,431.335306 1025.23418,431.335306 C1025.03853,431.335306 1024.84831,431.316305 1024.66205,431.280803 C1025.04989,432.483853 1026.17241,433.36039 1027.50294,433.384891 C1026.46194,434.197425 1025.15117,434.681945 1023.72579,434.681945 C1023.47974,434.681945 1023.23863,434.667444 1023,434.639443 C1024.34683,435.498979 1025.94563,436 1027.66252,436 C1033.25636,436 1036.31465,431.384308 1036.31465,427.380641 C1036.31465,427.249635 1036.31267,427.11813 1036.30674,426.988625 C1036.90012,426.561607 1037.41642,426.028085 1037.82353,425.420059 C1037.27857,425.661569 1036.69261,425.823576 1036.077,425.897079 C1036.70446,425.522563 1037.18618,424.929039 1037.41395,424.221009"></path>
        </g>
    </g>
</svg>