<?xml version="1.0" encoding="UTF-8"?>
<svg width="14px" height="14px" viewBox="0 0 14 14" version="1.1" xmlns="http://www.w3.org/2000/svg" xmlns:xlink="http://www.w3.org/1999/xlink">
    <!-- Generator: Sketch 48.2 (47327) - http://www.bohemiancoding.com/sketch -->
    <title>Page 1</title>
    <desc>Created with Sketch.</desc>
    <defs></defs>
    <g id="Footer" stroke="none" stroke-width="1" fill="none" fill-rule="evenodd" transform="translate(-960.000000, -421.000000)">
        <g fill="#FFBB32" id="Page-1">
            <g transform="translate(960.000000, 421.000000)">
                <polygon id="Fill-1" points="0 14 3.26666667 14 3.26666667 4.66666667 0 4.66666667"></polygon>
                <g id="Group-6">
                    <path d="M1.63333333,0 C2.5354,0 3.26666667,0.731266667 3.26666667,1.63333333 C3.26666667,2.5354 2.5354,3.26666667 1.63333333,3.26666667 C0.731266667,3.26666667 0,2.5354 0,1.63333333 C0,0.731266667 0.731266667,0 1.63333333,0" id="Fill-2"></path>
                    <path d="M14,8.8704 C14,6.3518 13.4568,4.6662 10.521,4.6662 C9.11026667,4.6662 8.16293333,5.19026667 7.7756,5.92573333 L7.73546667,5.92573333 L7.73546667,4.6662 L5.13333333,4.6662 L5.13333333,13.9995333 L7.85306667,13.9995333 L7.85306667,9.37346667 C7.85306667,8.1536 8.0836,6.97246667 9.5928,6.97246667 C11.0796,6.97246667 11.1995333,8.36733333 11.1995333,9.45233333 L11.1995333,14 L13.9995333,14 L13.9995333,8.8704 L14,8.8704 Z" id="Fill-4"></path>
                </g>
            </g>
        </g>
    </g>
</svg>